<svg width="64" height="64" viewBox="0 0 64 64" fill="none" xmlns="http://www.w3.org/2000/svg">
<rect width="64" height="64" rx="32" fill="#34C759" fill-opacity="0.1"/>
<path d="M27.5 30.5H27.51M32 30.5H32.01M36.5 30.5H36.51M27 38V40.3355C27 40.8684 27 41.1348 27.1092 41.2716C27.2042 41.3906 27.3483 41.4599 27.5005 41.4597C27.6756 41.4595 27.8837 41.2931 28.2998 40.9602L30.6852 39.0518C31.1725 38.662 31.4162 38.4671 31.6875 38.3285C31.9282 38.2055 32.1844 38.1156 32.4492 38.0613C32.7477 38 33.0597 38 33.6837 38H36.2C37.8802 38 38.7202 38 39.362 37.673C39.9265 37.3854 40.3854 36.9265 40.673 36.362C41 35.7202 41 34.8802 41 33.2V27.8C41 26.1198 41 25.2798 40.673 24.638C40.3854 24.0735 39.9265 23.6146 39.362 23.327C38.7202 23 37.8802 23 36.2 23H27.8C26.1198 23 25.2798 23 24.638 23.327C24.0735 23.6146 23.6146 24.0735 23.327 24.638C23 25.2798 23 26.1198 23 27.8V34C23 34.93 23 35.395 23.1022 35.7765C23.3796 36.8117 24.1883 37.6204 25.2235 37.8978C25.605 38 26.07 38 27 38ZM28 30.5C28 30.7761 27.7761 31 27.5 31C27.2239 31 27 30.7761 27 30.5C27 30.2239 27.2239 30 27.5 30C27.7761 30 28 30.2239 28 30.5ZM32.5 30.5C32.5 30.7761 32.2761 31 32 31C31.7239 31 31.5 30.7761 31.5 30.5C31.5 30.2239 31.7239 30 32 30C32.2761 30 32.5 30.2239 32.5 30.5ZM37 30.5C37 30.7761 36.7761 31 36.5 31C36.2239 31 36 30.7761 36 30.5C36 30.2239 36.2239 30 36.5 30C36.7761 30 37 30.2239 37 30.5Z" stroke="#34C759" stroke-width="2" stroke-linecap="round" stroke-linejoin="round"/>
</svg>
