<svg width="64" height="64" viewBox="0 0 64 64" fill="none" xmlns="http://www.w3.org/2000/svg">
<rect width="64" height="64" rx="32" fill="#34C759" fill-opacity="0.1"/>
<path d="M28.8762 33.0953L24.7012 27.8765C24.4413 27.5517 24.3114 27.3892 24.219 27.2083C24.137 27.0479 24.0771 26.877 24.0408 26.7005C24 26.5016 24 26.2935 24 25.8775V25.2C24 24.0799 24 23.5198 24.218 23.092C24.4097 22.7157 24.7157 22.4097 25.092 22.218C25.5198 22 26.0799 22 27.2 22H36.8C37.9201 22 38.4802 22 38.908 22.218C39.2843 22.4097 39.5903 22.7157 39.782 23.092C40 23.5198 40 24.0799 40 25.2V25.8775C40 26.2935 40 26.5016 39.9592 26.7005C39.9229 26.877 39.863 27.0479 39.781 27.2083C39.6886 27.3892 39.5587 27.5517 39.2988 27.8765L35.1238 33.0953M25.0001 23L32.0001 32L39 23M35.5355 33.4645C37.4882 35.4171 37.4882 38.5829 35.5355 40.5355C33.5829 42.4882 30.4171 42.4882 28.4645 40.5355C26.5118 38.5829 26.5118 35.4171 28.4645 33.4645C30.4171 31.5118 33.5829 31.5118 35.5355 33.4645Z" stroke="#34C759" stroke-width="2" stroke-linecap="round" stroke-linejoin="round"/>
</svg>
