<svg width="64" height="64" viewBox="0 0 64 64" fill="none" xmlns="http://www.w3.org/2000/svg">
<rect width="64" height="64" rx="32" fill="#34C759" fill-opacity="0.1"/>
<path d="M29 31.5L31 33.5L35.5 29M40 32C40 36.9084 34.646 40.4784 32.698 41.6149C32.4766 41.744 32.3659 41.8086 32.2097 41.8421C32.0884 41.8681 31.9116 41.8681 31.7903 41.8421C31.6341 41.8086 31.5234 41.744 31.302 41.6149C29.354 40.4784 24 36.9084 24 32V27.2176C24 26.4181 24 26.0183 24.1308 25.6747C24.2463 25.3711 24.434 25.1003 24.6777 24.8855C24.9535 24.6424 25.3278 24.5021 26.0764 24.2213L31.4382 22.2107C31.6461 22.1327 31.75 22.0937 31.857 22.0783C31.9518 22.0646 32.0482 22.0646 32.143 22.0783C32.25 22.0937 32.3539 22.1327 32.5618 22.2107L37.9236 24.2213C38.6722 24.5021 39.0465 24.6424 39.3223 24.8855C39.566 25.1003 39.7537 25.3711 39.8692 25.6747C40 26.0183 40 26.4181 40 27.2176V32Z" stroke="#34C759" stroke-width="2" stroke-linecap="round" stroke-linejoin="round"/>
</svg>
