<svg width="64" height="64" viewBox="0 0 64 64" fill="none" xmlns="http://www.w3.org/2000/svg">
<rect width="64" height="64" rx="32" fill="#34C759" fill-opacity="0.1"/>
<path d="M35.0505 29H25.5C24.1193 29 23 27.8807 23 26.5C23 25.1193 24.1193 24 25.5 24H35.0505M28.9495 40H38.5C39.8807 40 41 38.8807 41 37.5C41 36.1193 39.8807 35 38.5 35H28.9495M23 37.5C23 39.433 24.567 41 26.5 41C28.433 41 30 39.433 30 37.5C30 35.567 28.433 34 26.5 34C24.567 34 23 35.567 23 37.5ZM41 26.5C41 28.433 39.433 30 37.5 30C35.567 30 34 28.433 34 26.5C34 24.567 35.567 23 37.5 23C39.433 23 41 24.567 41 26.5Z" stroke="#34C759" stroke-width="2" stroke-linecap="round" stroke-linejoin="round"/>
</svg>
