<svg width="64" height="64" viewBox="0 0 64 64" fill="none" xmlns="http://www.w3.org/2000/svg">
<rect width="64" height="64" rx="32" fill="#34C759" fill-opacity="0.1"/>
<path d="M31.9995 32.0001H32.0095M35.535 35.5357C30.8488 40.222 25.4669 42.438 23.5142 40.4854C21.5616 38.5328 23.7777 33.1509 28.464 28.4646C33.1503 23.7783 38.5322 21.5622 40.4848 23.5149C42.4374 25.4675 40.2213 30.8494 35.535 35.5357ZM35.535 28.4644C40.2213 33.1507 42.4374 38.5326 40.4848 40.4852C38.5321 42.4379 33.1502 40.2218 28.4639 35.5355C23.7776 30.8492 21.5616 25.4673 23.5142 23.5147C25.4668 21.5621 30.8487 23.7781 35.535 28.4644ZM32.4995 32.0001C32.4995 32.2763 32.2757 32.5001 31.9995 32.5001C31.7234 32.5001 31.4995 32.2763 31.4995 32.0001C31.4995 31.724 31.7234 31.5001 31.9995 31.5001C32.2757 31.5001 32.4995 31.724 32.4995 32.0001Z" stroke="#34C759" stroke-width="2" stroke-linecap="round" stroke-linejoin="round"/>
</svg>
