<svg width="64" height="64" viewBox="0 0 64 64" fill="none" xmlns="http://www.w3.org/2000/svg">
<rect width="64" height="64" rx="32" fill="#34C759" fill-opacity="0.1"/>
<path d="M42 31.0857V32.0057C41.9988 34.1621 41.3005 36.2604 40.0093 37.9875C38.7182 39.7147 36.9033 40.9782 34.8354 41.5896C32.7674 42.201 30.5573 42.1276 28.5345 41.3803C26.5117 40.633 24.7847 39.2518 23.611 37.4428C22.4373 35.6338 21.8798 33.4938 22.0217 31.342C22.1636 29.1903 22.9972 27.1421 24.3983 25.5028C25.7994 23.8635 27.6928 22.7211 29.7962 22.2459C31.8996 21.7706 34.1003 21.9881 36.07 22.8657M42 24L32 34.01L29 31.01" stroke="#34C759" stroke-width="2" stroke-linecap="round" stroke-linejoin="round"/>
</svg>
