<svg width="401" height="192" viewBox="0 0 401 192" fill="none" xmlns="http://www.w3.org/2000/svg">
<path d="M288.703 98.9917C288.703 90.6159 290.003 83.0344 292.602 76.2472C295.346 69.3155 299.173 63.4669 304.083 58.7014C308.993 53.7915 314.913 50.0368 321.845 47.4374C328.777 44.6937 336.431 43.3218 344.806 43.3218C353.182 43.3218 360.764 44.6937 367.551 47.4374C374.482 50.0368 380.403 53.7915 385.313 58.7014C390.223 63.4669 393.978 69.3155 396.577 76.2472C399.321 83.0344 400.693 90.6159 400.693 98.9917C400.693 107.367 399.321 115.021 396.577 121.953C393.978 128.884 390.223 134.805 385.313 139.715C380.403 144.625 374.482 148.452 367.551 151.196C360.764 153.795 353.182 155.095 344.806 155.095C336.431 155.095 328.777 153.795 321.845 151.196C314.913 148.452 308.993 144.625 304.083 139.715C299.173 134.805 295.346 128.884 292.602 121.953C290.003 115.021 288.703 107.367 288.703 98.9917ZM314.697 99.2083C314.697 109.317 317.368 117.187 322.712 122.819C328.199 128.451 335.492 131.267 344.59 131.267C353.687 131.267 360.98 128.451 366.468 122.819C371.955 117.187 374.699 109.317 374.699 99.2083C374.699 89.0996 371.955 81.2293 366.468 75.5973C360.98 69.9654 353.687 67.1494 344.59 67.1494C335.492 67.1494 328.199 69.9654 322.712 75.5973C317.368 81.2293 314.697 89.0996 314.697 99.2083Z" fill="white"/>
<path d="M284.976 154.659C267.07 154.659 253.495 150.327 244.253 141.662C235.155 132.853 230.606 120.073 230.606 103.321V1.51245H256.6V103.105C256.6 113.069 258.766 120.217 263.098 124.549C267.431 128.737 274.723 130.831 284.976 130.831V154.659ZM281.294 44.8354V68.663H239.921V44.8354H281.294Z" fill="white"/>
<path d="M168.73 42.8906C177.683 42.8906 185.265 44.4069 191.474 47.4395C197.828 50.3277 203.027 54.0824 207.071 58.7035C211.114 63.1802 214.002 68.0901 215.735 73.4333C217.612 78.7764 218.551 83.8308 218.551 88.5963V153.147H192.557V89.2461C192.557 85.3471 191.908 82.0256 190.608 79.2818C189.308 76.5381 187.575 74.2275 185.409 72.3502C183.243 70.4729 180.716 69.101 177.828 68.2345C174.939 67.368 171.907 66.9348 168.73 66.9348C165.553 66.9348 162.52 67.368 159.632 68.2345C156.744 69.101 154.217 70.4729 152.05 72.3502C149.884 74.2275 148.151 76.5381 146.852 79.2818C145.552 82.0256 144.902 85.3471 144.902 89.2461V153.147H118.908V88.5963C118.908 83.8308 119.775 78.7764 121.508 73.4333C123.385 68.0901 126.346 63.1802 130.389 58.7035C134.432 54.0824 139.559 50.3277 145.769 47.4395C152.123 44.4069 159.776 42.8906 168.73 42.8906Z" fill="white"/>
<path d="M81.0437 44.8406H107.037V153.148H81.0437V44.8406Z" fill="white"/>
<path d="M74.1745 23.8276C63.9214 23.8276 56.6287 25.9937 52.2964 30.326C47.9641 34.5139 45.798 41.59 45.798 51.5542V153.146H19.8042V51.3376C19.8042 34.4417 24.3531 21.6615 33.4509 12.9969C42.6931 4.33229 56.2677 0 74.1745 0V23.8276ZM0.39917 68.6668V44.8392H91.9278V68.6668H0.39917Z" fill="white"/>
<path d="M79.6702 176.893C79.6702 172.401 81.022 168.795 83.7256 166.073C86.5644 163.351 90.2143 161.99 94.6752 161.99C99.1362 161.99 102.718 163.351 105.422 166.073C108.261 168.795 109.68 172.401 109.68 176.893C109.68 181.52 108.261 185.195 105.422 187.917C102.718 190.639 99.1362 192 94.6752 192C90.2143 192 86.5644 190.639 83.7256 187.917C81.022 185.195 79.6702 181.52 79.6702 176.893Z" fill="#34C759"/>
</svg>
